<svg width="90" height="89" viewBox="0 0 90 89" fill="none" xmlns="http://www.w3.org/2000/svg">
<path d="M63.1451 44.333C57.3015 38.0155 49.6552 33.6495 41.2445 31.8277C41.6921 31.6406 42.0994 31.3687 42.4437 31.027C42.7878 30.6845 43.06 30.2767 43.2444 29.8276C43.6258 28.8775 43.6258 27.8168 43.2444 26.8667C43.0629 26.4128 42.7905 26.0009 42.4437 25.6563C42.0994 25.3149 41.6921 25.0433 41.2445 24.8568C40.7746 24.6656 40.2713 24.5694 39.764 24.5743L5.00001 24.5743C2.23858 24.5743 -9.61534e-07 22.3357 -1.08224e-06 19.5743L-1.71929e-06 5.00024C-1.84e-06 2.23882 2.23857 0.000244043 5 0.000243922L39.7615 0.000242403C43.5584 -0.0167828 47.3191 0.738767 50.8148 2.22101C57.6169 5.08162 63.0275 10.4935 65.8865 17.2963C67.0909 20.1431 67.8071 23.1725 68.0049 26.2571C68.0149 26.3151 68.021 26.3737 68.0234 26.4324C68.2695 30.0412 67.8228 33.6637 66.7069 37.1044C66.5601 37.5732 66.3948 38.0409 66.2196 38.4999C65.43 40.5594 64.3978 42.5176 63.1451 44.333Z" fill="url(#paint0_linear_111_578)"/>
<path d="M61.6439 88.4544L5 88.4544C2.23858 88.4544 -9.78581e-08 86.2159 -2.18564e-07 83.4544L-8.53461e-07 68.9297C-9.74167e-07 66.1682 2.23858 63.9297 5 63.9297L61.6439 63.9297C62.1296 63.934 62.611 63.8378 63.0577 63.6471C63.5308 63.441 63.9609 63.148 64.3261 62.7835C64.6702 62.441 64.9423 62.0334 65.1268 61.5843C65.5081 60.634 65.5081 59.5734 65.1268 58.6232C64.9453 58.1693 64.6729 57.7574 64.3261 57.4129C63.978 57.0688 63.5677 56.7942 63.117 56.6036C62.6492 56.4144 62.1482 56.3217 61.6439 56.3309L5 56.3309C2.23858 56.3309 -1.50202e-06 54.0923 -1.62273e-06 51.3309L-2.26119e-06 36.7246C-2.38151e-06 33.9719 2.22496 31.7369 4.97762 31.7246L63.1244 31.4644C71.5351 33.2861 79.1813 37.6522 85.0249 43.9698C85.5 44.5 85.9721 45.6095 86.4203 46.4114C86.4381 46.4396 86.4541 46.4688 86.4684 46.499C86.4882 46.5385 86.5178 46.5866 86.5474 46.6459C87.1423 47.7131 87.6606 48.8214 88.0982 49.9622C90.7497 56.8228 90.6244 64.4465 87.7487 71.2162C84.8731 77.9859 79.4733 83.369 72.6947 86.2238C69.2002 87.7082 65.4405 88.4671 61.6439 88.4544Z" fill="url(#paint1_linear_111_578)"/>
<defs>
<linearGradient id="paint0_linear_111_578" x1="8.47051" y1="-5.82936e-05" x2="8.47051" y2="56.1176" gradientUnits="userSpaceOnUse">
<stop stop-color="white"/>
<stop offset="1" stop-color="#C4C4C4"/>
</linearGradient>
<linearGradient id="paint1_linear_111_578" x1="-31.4118" y1="53.294" x2="90" y2="53.294" gradientUnits="userSpaceOnUse">
<stop stop-color="#C3C3C3"/>
<stop offset="1" stop-color="white"/>
</linearGradient>
</defs>
</svg>
