<svg width="53" height="52" viewBox="0 0 53 52" fill="none" xmlns="http://www.w3.org/2000/svg">
<path d="M37.1212 26.0621C33.6859 22.3483 29.1909 19.7816 24.2465 18.7106C24.5096 18.6007 24.749 18.4408 24.9515 18.2399C25.1537 18.0386 25.3137 17.7989 25.4222 17.5348C25.6464 16.9763 25.6464 16.3528 25.4222 15.7942C25.3155 15.5274 25.1553 15.2852 24.9515 15.0826C24.749 14.8819 24.5096 14.7223 24.2465 14.6126C23.9702 14.5002 23.6744 14.4437 23.3761 14.4465L5 14.4465C2.23858 14.4465 -6.05586e-07 12.208 -7.26292e-07 9.44654L-9.20649e-07 5.00016C-1.04135e-06 2.23874 2.23858 0.000165841 5 0.000165721L23.3747 0.000164918C25.6068 -0.00984495 27.8175 0.434323 29.8726 1.30569C33.8714 2.98736 37.0521 6.16888 38.7328 10.168C39.4408 11.8416 39.8619 13.6225 39.9781 15.4358C39.984 15.4699 39.9876 15.5044 39.989 15.5389C40.1337 17.6604 39.8711 19.7899 39.2151 21.8126C39.1288 22.0883 39.0316 22.3632 38.9286 22.633C38.4644 23.8438 37.8577 24.9949 37.1212 26.0621Z" fill="url(#paint0_linear_210_832)"/>
<path d="M36.2387 51.9999L5 51.9999C2.23858 51.9999 -9.78553e-08 49.7613 -2.18561e-07 46.9999L-4.11652e-07 42.5825C-5.32358e-07 39.8211 2.23858 37.5825 5 37.5825L36.2387 37.5825C36.5242 37.585 36.8073 37.5285 37.0699 37.4164C37.348 37.2952 37.6008 37.1229 37.8155 36.9087C38.0178 36.7074 38.1778 36.4677 38.2862 36.2037C38.5104 35.6451 38.5104 35.0215 38.2862 34.463C38.1795 34.1962 38.0194 33.954 37.8155 33.7515C37.6109 33.5492 37.3696 33.3877 37.1047 33.2757C36.8297 33.1645 36.5352 33.11 36.2387 33.1154L5 33.1154C2.23858 33.1154 -9.23324e-07 30.8768 -1.04403e-06 28.1154L-1.23962e-06 23.6408C-1.35994e-06 20.8881 2.22496 18.6532 4.97762 18.6409L37.109 18.4971C42.0535 19.568 46.5485 22.1347 49.9838 25.8487C49.9947 25.832 49.9722 25.8661 49.9838 25.8487C50.2937 26.2959 50.5406 26.8126 50.8041 27.284C50.8145 27.3006 50.824 27.3177 50.8324 27.3355C50.844 27.3587 50.8614 27.387 50.8788 27.4218C51.2285 28.0492 51.5332 28.7007 51.7905 29.3714C53.3492 33.4046 53.2755 37.8863 51.585 41.866C49.8945 45.8457 46.7201 49.0103 42.7352 50.6886C40.6808 51.5612 38.4706 52.0074 36.2387 51.9999Z" fill="url(#paint1_linear_210_832)"/>
<defs>
<linearGradient id="paint0_linear_210_832" x1="4.97958" y1="-1.3751e-05" x2="4.97958" y2="32.99" gradientUnits="userSpaceOnUse">
<stop stop-color="#495EF9"/>
<stop offset="1" stop-color="#1F2958"/>
</linearGradient>
<linearGradient id="paint1_linear_210_832" x1="-18.4661" y1="31.3301" x2="52.9085" y2="31.3301" gradientUnits="userSpaceOnUse">
<stop stop-color="#1F2958"/>
<stop offset="1" stop-color="#495EF9"/>
</linearGradient>
</defs>
</svg>
