<svg width="256" height="252" viewBox="0 0 256 252" fill="none" xmlns="http://www.w3.org/2000/svg">
<path d="M179.28 126.11C162.723 108.211 141.058 95.8403 117.228 90.6786C118.496 90.1487 119.65 89.3782 120.626 88.4099C121.601 87.4395 122.372 86.2842 122.895 85.0118C123.975 82.3198 123.975 79.3145 122.895 76.6225C122.38 75.3365 121.609 74.1692 120.626 73.1929C119.65 72.2257 118.496 71.4563 117.228 70.9277C115.897 70.3859 114.471 70.1136 113.033 70.1272L5.36877 70.1272C2.60735 70.1272 0.368772 67.8886 0.368772 65.1272L0.368769 5.50084C0.368769 2.73942 2.60735 0.500847 5.36877 0.500847L113.026 0.500842C123.784 0.452601 134.439 2.59333 144.344 6.79303C163.617 14.8981 178.947 30.2318 187.047 49.5063C190.46 57.5722 192.489 66.1554 193.049 74.8953C193.078 75.0596 193.095 75.2256 193.102 75.392C193.799 85.6169 192.533 95.8805 189.372 105.629C188.956 106.958 188.487 108.283 187.991 109.583C185.754 115.418 182.829 120.967 179.28 126.11Z" fill="#FE7247"/>
<path d="M175.026 251.121L5.36864 251.121C2.60722 251.121 0.368652 248.883 0.368652 246.121L0.36865 186.634C0.368649 183.873 2.60723 181.634 5.36865 181.634L175.026 181.634C176.403 181.647 177.767 181.374 179.032 180.834C180.373 180.25 181.591 179.419 182.626 178.387C183.601 177.416 184.372 176.261 184.895 174.989C185.975 172.297 185.975 169.291 184.895 166.599C184.38 165.313 183.608 164.146 182.626 163.17C181.64 162.195 180.477 161.417 179.2 160.877C177.875 160.341 176.455 160.078 175.026 160.104L5.36864 160.104C2.60722 160.104 0.368648 157.866 0.368648 155.104L0.368646 95.4275C0.368645 92.6748 2.59361 90.4398 5.34627 90.4275L179.221 89.6493C203.051 94.811 224.716 107.181 241.273 125.081C241.325 125.001 241.217 125.165 241.273 125.081C242.766 127.237 243.956 129.727 245.226 131.999C245.277 132.079 245.322 132.162 245.363 132.248C245.419 132.359 245.502 132.496 245.586 132.663C247.272 135.687 248.74 138.827 249.98 142.06C257.493 161.498 257.138 183.099 248.99 202.279C240.842 221.46 225.543 236.712 206.337 244.801C196.436 249.007 185.783 251.157 175.026 251.121Z" fill="#FE7247"/>
</svg>
